<?xml version="1.0" encoding="UTF-8"?>
<svg width="81px" height="81px" viewBox="0 0 81 81" version="1.1" xmlns="http://www.w3.org/2000/svg" xmlns:xlink="http://www.w3.org/1999/xlink">
    <!-- Generator: Sketch 51 (57462) - http://www.bohemiancoding.com/sketch -->
    <title>icon-search</title>
    <desc>Created with Sketch.</desc>
    <defs></defs>
    <g id="Page-1" stroke="none" stroke-width="1" fill="none" fill-rule="evenodd">
        <g id="icon-search" transform="translate(-1.000000, 0.000000)" fill="#FFFFFF" fill-rule="nonzero">
            <path d="M34,-2.81081743e-15 C19.6794055,-0.00611763495 6.98930429,9.22473382 2.58520234,22.8513016 C-1.81889961,36.4778694 3.06829615,51.3896971 14.6836295,59.7660623 C26.2989629,68.1424275 41.9910702,68.0713066 53.53,59.59 L72.47,78.53 C73.7050273,79.9116009 75.6029011,80.4968205 77.4015275,80.050663 C79.2001539,79.6045056 80.6045056,78.2001539 81.050663,76.4015275 C81.4968205,74.6029011 80.9116009,72.7050273 79.53,71.47 L60.59,52.53 C67.9504888,42.5048275 69.0493998,29.1928634 63.4325152,18.0964006 C57.8156306,6.99993772 46.4370762,0.00390366927 34,-2.81081743e-15 Z M34,10 C46.7025492,10 57,20.2974508 57,33 C57,45.7025492 46.7025492,56 34,56 C21.2974508,56 11,45.7025492 11,33 C10.9786484,26.8935002 13.3949986,21.0309463 17.7129725,16.7129725 C22.0309463,12.3949986 27.8935002,9.97864841 34,10 Z" id="Shape"></path>
        </g>
    </g>
</svg>