<svg xmlns="http://www.w3.org/2000/svg" viewBox="0 0 894.51 351.84"><defs><style>.cls-1{fill:#65bc46;}.cls-2{fill:#231f20;}.cls-3{isolation:isolate;}.cls-4{fill:#676767;}</style></defs><title>Layer 1</title><g id="Layer_2" data-name="Layer 2"><g id="Layer_1-2" data-name="Layer 1"><path class="cls-1" d="M206.8,38.29V0h-.58a206.77,206.77,0,0,0-26.9,1.75l5,38a169.8,169.8,0,0,1,22.19-1.46Z"/><path class="cls-1" d="M78.6,189.2l37.4,4.89a88.86,88.86,0,0,1,6-22.78L87.16,156.84,51.48,142a164.13,164.13,0,0,0-7,20.7L7,152.68a205,205,0,0,0-5.25,26.44l38.5,5Z"/><path class="cls-1" d="M260.16,7.14l-10,36.93a166.85,166.85,0,0,1,20.75,7.08l14.75-35.28A203.34,203.34,0,0,0,260.16,7.14Z"/><path class="cls-1" d="M127.92,308.1A131.62,131.62,0,0,1,115.21,297L87.88,324.25a167.33,167.33,0,0,0,16.46,14.45Z"/><path class="cls-1" d="M81.93,239.41l36.45-9.71A92.58,92.58,0,0,1,115.21,206H77.5a128.9,128.9,0,0,0,1.16,17l-38.33,5a169.76,169.76,0,0,1-1.45-21.85L0,206.1v.08a208.1,208.1,0,0,0,1.72,26.75,205.1,205.1,0,0,0,5.22,26.45l37.66-10Z"/><path class="cls-1" d="M134,261.33a92.52,92.52,0,0,1-6.61-9.89,90.65,90.65,0,0,1-5.25-10.59L87.32,255.27a128.41,128.41,0,0,0,7.45,15L61.3,289.62,27.5,309.13a208.16,208.16,0,0,0,32.75,42.71l27.63-27.59a168.18,168.18,0,0,1-14.42-16.46l30.66-23.51Z"/><path class="cls-1" d="M230.24,117.78a88.77,88.77,0,0,1,11.22,3.82L256,86.79a129.9,129.9,0,0,0-15.93-5.42Z"/><path class="cls-1" d="M189.25,78.08l-5-38.33a167.62,167.62,0,0,0-21.5,4.3L152.85,7a203.76,203.76,0,0,0-25.55,8.67L142,51.13l14.8,35.69a128.21,128.21,0,0,0-15.07,7.51L160.62,127a89.27,89.27,0,0,1,21.84-9.14,87.4,87.4,0,0,1,11.67-2.36,90.51,90.51,0,0,1,12.31-.85h.4V76.92h-.38A130.24,130.24,0,0,0,189.25,78.08Z"/><path class="cls-1" d="M206.82,76.91a130.18,130.18,0,0,1,16.74,1.16l5.11-38.31a170.21,170.21,0,0,0-21.87-1.47Z"/><path class="cls-1" d="M104.17,73.13,80.71,42.58A205,205,0,0,0,60.43,60.35L87.7,87.63,115,115a131.12,131.12,0,0,1,26.73-20.61l-19.35-33.5A166.53,166.53,0,0,0,104.17,73.13Z"/><path class="cls-1" d="M133.79,150.69a92.05,92.05,0,0,1,7.88-9.08L115,115a129.51,129.51,0,0,0-11.11,12.76Z"/><path class="cls-1" d="M42.65,80.62a207.43,207.43,0,0,0-15,22.38l33.48,19.38,33.45,19.38a127.74,127.74,0,0,1,9.32-14.06L73.27,104.16Z"/><path class="cls-1" d="M309.79,27.87l-19.24,33-19.44,33.4a127.67,127.67,0,0,1,14.05,9.44l23.62-30.57,23.36-30.25A207.22,207.22,0,0,0,309.79,27.87Z"/><path class="cls-2" d="M290.55,60.91a166.79,166.79,0,0,0-19.63-9.76L256,86.79a127.14,127.14,0,0,1,15.1,7.52Z"/><path class="cls-2" d="M223.56,78.07l-5,37.38a90.59,90.59,0,0,1,11.67,2.33l9.84-36.41A126.93,126.93,0,0,0,223.56,78.07Z"/><path class="cls-2" d="M206.44,38.29a169.8,169.8,0,0,0-22.19,1.46l5,38.33a130.08,130.08,0,0,1,17.19-1.18h.38V38.28Z"/><path class="cls-2" d="M51.48,142l35.68,14.82a128.44,128.44,0,0,1,7.41-15.08L61.12,122.38A166.48,166.48,0,0,0,51.48,142Z"/><path class="cls-2" d="M87.88,324.25,115.21,297a129.94,129.94,0,0,1-11.09-12.7l-30.66,23.5A168.18,168.18,0,0,0,87.88,324.25Z"/><path class="cls-2" d="M94.57,141.76l32.64,18.89a89.81,89.81,0,0,1,6.58-10l-29.9-23A128.38,128.38,0,0,0,94.57,141.76Z"/><path class="cls-2" d="M77.49,205.85v.2H115.2v-.18a91.06,91.06,0,0,1,.8-11.78L78.6,189.2A130.54,130.54,0,0,0,77.49,205.85Z"/><path class="cls-2" d="M51.62,270l35.7-14.76a128.17,128.17,0,0,1-5.39-15.86l-37.33,10A166.62,166.62,0,0,0,51.62,270Z"/><path class="cls-2" d="M127.7,103.77l23,29.9a90.79,90.79,0,0,1,10-6.7l-19-32.64A127.42,127.42,0,0,0,127.7,103.77Z"/><path class="cls-2" d="M205.61,154.72c-29.56,0-50.45,22.68-50.45,49.76v.28c0,27.07,20.62,49.48,50.17,49.48s50.45-22.68,50.45-49.76v-.27C255.78,177.13,235.16,154.72,205.61,154.72Zm32.43,50c0,18.69-13.33,33.95-32.43,33.95s-32.72-15.54-32.72-34.23v-.27c0-18.7,13.33-33.95,32.44-33.95S238,185.79,238,204.48Z"/><rect class="cls-2" x="270.34" y="156.37" width="16.91" height="96.21"/><path class="cls-2" d="M351.3,238.71c-18.42,0-31.75-15.4-31.75-34.23v-.27c0-18.83,13.33-34,31.75-34,11,0,19.24,4.81,26.94,12L389.1,169.7c-9.21-8.79-19.93-15-37.66-15-29.15,0-49.63,22.41-49.63,49.76v.28c0,27.63,20.9,49.48,48.94,49.48,18,0,29-6.6,39-17.05l-10.85-11C370.68,233.9,363.12,238.71,351.3,238.71Z"/><path class="cls-2" d="M459.06,216.16C472.53,212.32,482,202.83,482,187v-.28c0-8.38-2.89-15.53-8-20.76-6.19-6-15.67-9.62-27.77-9.62H403.39v96.26h16.9V219.05h21.17l23.64,33.54H485Zm-38.77-12.09v-32.3H444.9c12.51,0,19.93,5.63,19.93,15.94V188c0,9.76-7.7,16.08-19.79,16.08Z"/><g class="cls-3"><path class="cls-4" d="M500.62,213.33h34.06v8.06H500.62Z"/><path class="cls-4" d="M554.7,161.59h16.9v76.7h47.58v14.3H554.7Z"/><path class="cls-4" d="M692.24,231.53h-45.5l-9,21.06H620.35l40.95-91h16.64l41.08,91H701.34Zm-5.59-13.26-17.16-39.78-17,39.78Z"/><path class="cls-4" d="M807,213.52q4.41,5.79,4.42,14.37,0,11.84-9.1,18.27t-26.52,6.43H730.59v-91h42.64q16.11,0,24.83,6.3a20.29,20.29,0,0,1,8.71,17.36,22.79,22.79,0,0,1-3.12,12,21.36,21.36,0,0,1-8.58,8.06A24.11,24.11,0,0,1,807,213.52Zm-59.54-38.67v25.09h23.92q8.83,0,13.58-3.19a10.49,10.49,0,0,0,4.75-9.29A10.64,10.64,0,0,0,785,178q-4.74-3.18-13.58-3.18Zm46.93,51.35q0-13.12-19.63-13.13h-27.3v26.26h27.3Q794.41,239.33,794.42,226.2Z"/><path class="cls-4" d="M837.38,250.9q-9.82-3-15.54-7.93l5.85-13.13a46,46,0,0,0,13.72,7.21,49.64,49.64,0,0,0,16.31,2.8q10.14,0,15.15-3.25t5-8.58a8.32,8.32,0,0,0-2.79-6.44,19.65,19.65,0,0,0-7.09-4q-4.29-1.43-11.7-3.25a136.45,136.45,0,0,1-16.83-4.94,27.78,27.78,0,0,1-11.05-7.73q-4.62-5.28-4.62-14.24a24.25,24.25,0,0,1,4.1-13.71q4.1-6.18,12.35-9.82t20.21-3.64a65.1,65.1,0,0,1,16.38,2.08,45.29,45.29,0,0,1,13.91,6l-5.33,13.13a52.22,52.22,0,0,0-12.48-5.33,46.76,46.76,0,0,0-12.61-1.82q-10,0-14.88,3.38a10.42,10.42,0,0,0-4.88,9,8.1,8.1,0,0,0,2.8,6.37,20,20,0,0,0,7.08,3.9q4.29,1.43,11.7,3.25a123,123,0,0,1,16.64,4.87,28.47,28.47,0,0,1,11.12,7.74q4.61,5.2,4.61,14a24,24,0,0,1-4.09,13.65q-4.09,6.1-12.42,9.75t-20.28,3.64A69.49,69.49,0,0,1,837.38,250.9Z"/></g></g></g></svg>