<?xml version="1.0" encoding="utf-8"?>
<!-- Generator: Adobe Illustrator 22.1.0, SVG Export Plug-In . SVG Version: 6.00 Build 0)  -->
<svg version="1.1" id="Layer_1" xmlns="http://www.w3.org/2000/svg" xmlns:xlink="http://www.w3.org/1999/xlink" x="0px" y="0px"
	 viewBox="0 0 24 23" style="enable-background:new 0 0 24 23;" xml:space="preserve">
<style type="text/css">
	.st0{fill:#017BC7;}
</style>
<title>147 - Blood Samples (Solid)</title>
<desc>Created with Sketch.</desc>
<g>
	<g>
		<path class="st0" d="M22,20H2v-8h2v3c0,1.7,1.3,3,3,3s3-1.3,3-3v-3h4v3c0,1.7,1.3,3,3,3s3-1.3,3-3v-3h2V20z M5,6h4V5H5V6z M15,6h4
			V5h-4V6z M23,10h-3V8c0.6,0,1-0.4,1-1V4c0-0.6-0.4-1-1-1V1c0-0.6-0.4-1-1-1h-4c-0.6,0-1,0.4-1,1v2c-0.6,0-1,0.4-1,1v3
			c0,0.6,0.4,1,1,1v2h-4V8c0.6,0,1-0.4,1-1V4c0-0.6-0.4-1-1-1V1c0-0.6-0.4-1-1-1H5C4.4,0,4,0.5,4,1v2C3.4,3,3,3.5,3,4v3
			c0,0.6,0.4,1,1,1v2H1c-0.6,0-1,0.4-1,1v10c0,0.6,0.4,1,1,1h22c0.6,0,1-0.4,1-1V11C24,10.5,23.6,10,23,10L23,10z"/>
	</g>
</g>
</svg>
