<svg id="Layer_1" data-name="Layer 1" xmlns="http://www.w3.org/2000/svg" xmlns:xlink="http://www.w3.org/1999/xlink" viewBox="0 0 1236 348.57"><defs><style>.cls-1{fill:#fff;}.cls-2{opacity:0.25;}.cls-3{fill:#c7c7c0;}.cls-4{mask:url(#mask);}.cls-5{fill:#65bc45;}.cls-5,.cls-7{opacity:0.8;isolation:isolate;}.cls-6{mask:url(#mask-2-2);}</style><mask id="mask" x="0" y="0" width="1236" height="331.68" maskUnits="userSpaceOnUse"><g transform="translate(0 8)"><g id="mask-2"><rect id="path-1" class="cls-1" width="1160" height="286"/></g></g></mask><mask id="mask-2-2" x="0" y="8" width="1183.64" height="340.57" maskUnits="userSpaceOnUse"><g transform="translate(0 8)"><g id="mask-2-3" data-name="mask-2"><rect id="path-1-2" data-name="path-1" class="cls-1" width="1160" height="286"/></g></g></mask></defs><title>banner image-grey</title><g id="Desktop-HD"><rect class="cls-1" y="8" width="1159" height="286"/><g id="Banner"><g id="Rectangle-4"><g id="Mask-3" data-name="Mask" class="cls-2"><rect id="path-1-3" data-name="path-1" class="cls-3" y="8" width="1160" height="286"/></g><g class="cls-4"><path class="cls-5" d="M1194.89-8a117.11,117.11,0,0,1,28,32.91A111.81,111.81,0,0,1,1236,65.41L756.37,323.68q1.2-9.3-4-18.65A35.2,35.2,0,0,0,738,290.82Z" transform="translate(0 8)"/></g><g class="cls-6"><path id="Rectangle-4-Copy" class="cls-7" d="M1160,148.55a77.79,77.79,0,0,1,17.11,23.3,72,72,0,0,1,6.53,27.39L843.76,340.57a19.12,19.12,0,0,0-1.67-12.5,23.61,23.61,0,0,0-8.91-10.2Z" transform="translate(0 8)"/></g></g></g></g></svg>