<svg xmlns="http://www.w3.org/2000/svg" xmlns:xlink="http://www.w3.org/1999/xlink" version="1.1" x="0px" y="0px" viewBox="0 0 100 100" style="enable-background:new 0 0 100 100;" xml:space="preserve"><style type="text/css">
	.st0{fill:none;}
</style><rect class="st0" width="100" height="100"></rect><path  d="M73.8,48.3L54,28.5c-1-1-2.5-1-3.5,0c-1,1-1,2.5,0,3.5l15.6,15.6H28c-1.4,0-2.5,1.1-2.5,2.5c0,1.4,1.1,2.5,2.5,2.5h38.2  L50.6,68c-1,1-1,2.5,0,3.5c0.5,0.5,1.1,0.7,1.7,0.7s1.3-0.2,1.7-0.7l19.7-19.7c0.5-0.5,0.7-1.1,0.7-1.7  C74.5,49.3,74.2,48.7,73.8,48.3z"></path></svg>