<svg fill="#6D6C6D" xmlns="http://www.w3.org/2000/svg" xmlns:xlink="http://www.w3.org/1999/xlink" version="1.1" x="0px" y="0px" viewBox="0 0 100 100" enable-background="new 0 0 100 100" xml:space="preserve"><path d="M58.571,62.449L77.4,89.34c1.068,1.525,3.174,1.898,4.699,0.83c1.526-1.068,1.896-3.174,0.828-4.699L64.207,58.736  c11.424-9.571,13.836-26.51,5.132-38.94C60.145,6.664,41.982,3.462,28.85,12.657c-13.131,9.195-16.334,27.358-7.139,40.49  C30.084,65.105,45.896,68.824,58.571,62.449z M26.546,49.762c-7.328-10.467-4.773-24.943,5.691-32.27  c10.464-7.328,24.94-4.776,32.267,5.69c7.329,10.465,4.774,24.94-5.689,32.267C48.35,62.777,33.874,60.227,26.546,49.762z"></path></svg>