<?xml version="1.0" encoding="utf-8"?>
<!-- Generator: Adobe Illustrator 22.1.0, SVG Export Plug-In . SVG Version: 6.00 Build 0)  -->
<svg version="1.1" id="Layer_1" xmlns="http://www.w3.org/2000/svg" xmlns:xlink="http://www.w3.org/1999/xlink" x="0px" y="0px"
	 viewBox="0 0 100 100" style="enable-background:new 0 0 100 100;" xml:space="preserve">
<style type="text/css">
	.st0{fill:#017BC7;}
</style>
<title>09</title>
<path class="st0" d="M87,90.6c1.3-2.1,1.3-4.8,0.1-6.9L63.8,41.3V24.1h7V5.9H29.2v18.2h7v17.2L12.9,83.7c-1.9,3.4-0.6,7.6,2.7,9.5
	c1,0.6,2.2,0.9,3.4,0.9h62C83.5,94.1,85.8,92.8,87,90.6z M28.6,67.6l3.9-7H49v-6H35.8l2.2-4h11v-6h-7.7l1-1.8v-2.2H49v-6h-6.8v-4H49
	v-6h-6.8v-6.6h-7v-6.2h29.5v6.2h-7v24.8l13.7,24.8L28.6,67.6z"/>
</svg>
