<?xml version="1.0" encoding="utf-8"?>
<!-- Generator: Adobe Illustrator 22.1.0, SVG Export Plug-In . SVG Version: 6.00 Build 0)  -->
<svg version="1.1" id="Layer_1" xmlns="http://www.w3.org/2000/svg" xmlns:xlink="http://www.w3.org/1999/xlink" x="0px" y="0px"
	 viewBox="0 0 96 96" style="enable-background:new 0 0 96 96;" xml:space="preserve">
<style type="text/css">
	.st0{fill:#017BC7;}
</style>
<title>Artboard 100</title>
<path class="st0" d="M4.6,2.1c-1-0.3-2.2,0.2-2.5,1.3C2,3.6,2,3.8,2,4v73.3c0,0.9,0.6,1.6,1.4,1.9L46,93.4V15.9L4.6,2.1z"/>
<path class="st0" d="M93.2,2.4C92.6,2,92,1.9,91.4,2.1L50,15.9v77.6l42.6-14.2c0.8-0.3,1.4-1,1.4-1.9V4C94,3.4,93.7,2.8,93.2,2.4z
	 M87,37.3c0,0.8-0.5,1.6-1.3,1.9l-24,8.7c-1,0.4-2.2-0.2-2.6-1.2C59,46.5,59,46.2,59,46V25.7c0-0.8,0.5-1.6,1.3-1.9l24-8.7
	c1-0.4,2.2,0.2,2.6,1.2C87,16.5,87,16.8,87,17V37.3z"/>
</svg>
