<?xml version="1.0" encoding="utf-8"?>
<!-- Generator: Adobe Illustrator 22.1.0, SVG Export Plug-In . SVG Version: 6.00 Build 0)  -->
<svg version="1.1" id="Layer_1" xmlns="http://www.w3.org/2000/svg" xmlns:xlink="http://www.w3.org/1999/xlink" x="0px" y="0px"
	 viewBox="0 0 20 20" style="enable-background:new 0 0 20 20;" xml:space="preserve">
<style type="text/css">
	.st0{fill:#017BC7;}
</style>
<g>
	<path class="st0" d="M2,9h3.9v5.9c0,1.1-0.9,4.9-2,4.9s-2-3.8-2-4.9L2,9L2,9z"/>
	<path class="st0" d="M7.9,5.6v1C7.9,6.8,7.7,7,7.4,7H0.5C0.2,7,0,6.8,0,6.5v-1C0,5.2,0.2,5,0.5,5h1.3C1.3,4.5,1,3.9,1,3.1
		c0-1.6,1.3-3,3-3c1.6,0,3,1.3,3,3c0,0.8-0.3,1.5-0.8,2h1.3C7.7,5.1,7.9,5.3,7.9,5.6z"/>
	<path class="st0" d="M20,6.1v11.8c0,1.1-0.9,2-2,2h-6.2c-1.1,0-2-0.9-2-2v-3h4.9V9H9.9V6c0-1.1,0.9-2,2-2H18C19.1,4.1,20,5,20,6.1z
		"/>
	<path class="st0" d="M11.8,2.6v-2c0-0.3,0.2-0.5,0.5-0.5h4.9c0.3,0,0.5,0.2,0.5,0.5v2c0,0.3-0.2,0.5-0.5,0.5h-4.9
		C12.1,3.1,11.8,2.9,11.8,2.6z"/>
</g>
</svg>
